# xmcd
#
# Track frame offsets: 
#        150
#        778
#        17395
#        33043
#        51984
#        66714
#        87312
#        100798
#        122632
#        140695
#        162124
#        178723
#
# Disc length: 2632 seconds
#
# Revision: 0
# Processed by: cddbd v1.5.2PL0 Copyright (c) Steve Scherf et al.
# Submitted via: ExactAudioCopy v0.95b4
#
DISCID=900a460c
DTITLE=B.C. Read - "Live"
DYEAR=2003
DGENRE=Blues
TTITLE0=Intro
TTITLE1=That's Alright
TTITLE2=Root's Woman
TTITLE3=Black and Tan
TTITLE4=John The Revelator
TTITLE5=Baby, Please Don't Go
TTITLE6=Can't Be Found
TTITLE7=Rollin' and Tumblin' Blues
TTITLE8=Death Letter
TTITLE9=Electric Chair
TTITLE10=Love Blues
TTITLE11=Have A Little Faith In Me
EXTD=
EXTT0=
EXTT1=
EXTT2=
EXTT3=
EXTT4=
EXTT5=
EXTT6=
EXTT7=
EXTT8=
EXTT9=
EXTT10=
EXTT11=
PLAYORDER=
